# xmcd
#
# Track frame offsets: 
#        150
#        25644
#        50846
#        74042
#        96180
#        107340
#        127578
#        149766
#        167378
#        183053
#        205637
#        234366
#
# Disc length: 4289 seconds
#
# Revision: 0
# Processed by: cddbd v1.5.2PL0 Copyright (c) Steve Scherf et al.
# Submitted via: ExactAudioCopy v0.99pb3
#
DISCID=9810bf0c
DTITLE=Sugar Blue - Threshold
DYEAR=2009
DGENRE=Blues
TTITLE0=Living Your Love
TTITLE1=Average Guy
TTITLE2=Noel News
TTITLE3=Stop The War
TTITLE4=Ramblin'
TTITLE5=Cotton Tree
TTITLE6=Messin' With The Kid
TTITLE7=Tonight
TTITLE8=Trouble
TTITLE9=Don't Call Me
TTITLE10=Nightmare
TTITLE11=Interview With Sugar Blue
EXTD=
EXTT0=
EXTT1=
EXTT2=
EXTT3=
EXTT4=
EXTT5=
EXTT6=
EXTT7=
EXTT8=
EXTT9=
EXTT10=
EXTT11=
PLAYORDER=
